<svg width="104" height="64" viewBox="0 0 104 64" fill="none" xmlns="http://www.w3.org/2000/svg">
<g clip-path="url(#clip0_339_48)">
<path d="M99.6273 26.9411C102.464 29.8823 104 34.1176 104 39.647V64H102.345V39.647C102.345 34.5882 101.045 30.7058 98.4455 28C95.8455 25.2941 92.1818 24 87.3364 24C81.9 24 77.6455 25.647 74.5727 28.8235C71.3818 32 69.8455 36.3529 69.8455 41.5294V64H68.1909V22.7058H69.8455V33.7647C71.1455 30.2353 73.2727 27.5294 76.2273 25.5294C79.1818 23.5294 82.8455 22.5882 87.2182 22.5882C92.5364 22.4706 96.6727 23.8823 99.6273 26.9411Z" fill="#4D4D4D"/>
<path opacity="0.63" d="M10.6364 11.2942C10.4 10.7059 10.0454 10.1177 9.80908 9.64709L11.2273 12.5883L10.6364 11.2942Z" fill="black"/>
<path d="M62.6362 11.5294V60.8235C62.6362 61.8824 62.2817 62.7059 61.5726 63.2941C60.8635 63.8824 60.0363 64.1177 59.209 64.1177C58.3817 64.1177 57.5544 63.8824 56.9635 63.2941C56.2544 62.7059 55.8999 61.8824 55.8999 60.8235V12.2353L34.3908 59.5294C33.9181 60.5882 33.3272 61.4118 32.4999 61.8824C31.6726 62.4706 30.8453 62.7059 29.8999 62.7059C28.9544 62.7059 28.2453 62.4706 27.4181 61.8824C26.709 61.4118 25.9999 60.5882 25.5272 59.5294L6.02716 16.8235L4.60898 13.6471L4.13625 12.5882L3.1908 10.4706L2.83625 9.52943L2.59989 9.17649C2.48171 8.82354 2.36353 8.4706 2.36353 8.00001C2.36353 6.58825 3.42716 5.52943 4.72716 5.17648C5.08171 5.05884 5.31807 5.05884 5.67262 5.05884C6.73625 5.05884 7.56353 5.41178 8.03625 6.23531L8.74534 7.41178L9.6908 9.41178L9.80898 9.52943L11.2272 12.4706L11.4635 12.9412L29.8999 54.4706H30.1363L49.7544 11.2941C50.3453 10 50.8181 9.05884 51.2908 8.23531C51.7635 7.41178 52.2363 6.82354 52.8272 6.35296C53.2999 5.88237 54.009 5.52943 54.5999 5.41178C55.309 5.17648 56.0181 5.17648 56.8453 5.17648C57.6726 5.17648 58.3817 5.29413 59.0908 5.52943C59.7999 5.76472 60.3908 6.11766 60.9817 6.7059C61.5726 7.29413 61.9272 7.88237 62.2817 8.7059C62.6363 9.52943 62.6362 10.353 62.6362 11.5294Z" fill="#4D4D4D"/>
<path d="M11.3455 13.0588L11.2273 12.5883L11.3455 13.0588Z" fill="black"/>
</g>
<defs>
<clipPath id="clip0_339_48">
<rect width="104" height="64" fill="white"/>
</clipPath>
</defs>
</svg>
